<svg width="30" height="30" viewBox="0 0 30 30" fill="none" xmlns="http://www.w3.org/2000/svg">
<path opacity="0.4" d="M14.3641 17.9565L14.368 17.9599L13.4231 19.008C13.3342 19.106 13.2253 19.1843 13.1036 19.2378C12.9818 19.2913 12.85 19.3188 12.7167 19.3185H11.2512V20.8712C11.2512 21.1183 11.1516 21.3553 10.9744 21.53C10.7972 21.7047 10.5568 21.8028 10.3062 21.8028H8.73119V23.3555C8.73119 23.6026 8.63163 23.8395 8.45441 24.0142C8.27719 24.189 8.03683 24.2871 7.78621 24.2871H3.37626C3.12564 24.2871 2.88528 24.189 2.70806 24.0142C2.53084 23.8395 2.43128 23.6026 2.43128 23.3555V20.3278C2.43097 20.2053 2.45516 20.084 2.50245 19.9708C2.54975 19.8576 2.61922 19.7546 2.7069 19.6679L9.07887 13.3861L9.07454 13.3726C9.46112 14.5324 10.1555 15.5692 11.0856 16.3752C12.0158 17.1812 13.1477 17.7272 14.3641 17.9565Z" fill="black" fill-opacity="0.5"/>
<path d="M15.6611 4.4126C14.2905 4.4126 12.9507 4.81327 11.8111 5.56396C10.6714 6.31465 9.78322 7.38162 9.25871 8.62997C8.7342 9.87831 8.59697 11.252 8.86436 12.5772C9.13175 13.9024 9.79176 15.1197 10.7609 16.0752C11.7301 17.0306 12.9649 17.6813 14.3092 17.9449C15.6534 18.2085 17.0468 18.0732 18.3131 17.5561C19.5793 17.039 20.6617 16.1634 21.4231 15.0399C22.1846 13.9164 22.591 12.5956 22.591 11.2444C22.591 9.43248 21.8609 7.69479 20.5613 6.41358C19.2617 5.13237 17.499 4.4126 15.6611 4.4126V4.4126ZM17.5511 11.2444C17.1773 11.2444 16.8119 11.1351 16.5011 10.9304C16.1903 10.7256 15.948 10.4346 15.805 10.0942C15.6619 9.75373 15.6245 9.3791 15.6974 9.01767C15.7704 8.65624 15.9504 8.32425 16.2147 8.06368C16.479 7.8031 16.8158 7.62565 17.1824 7.55375C17.549 7.48186 17.929 7.51876 18.2743 7.65978C18.6197 7.8008 18.9149 8.03962 19.1225 8.34602C19.3302 8.65242 19.4411 9.01266 19.4411 9.38117C19.4411 9.87532 19.2419 10.3492 18.8875 10.6987C18.5331 11.0481 18.0523 11.2444 17.5511 11.2444Z" fill="black" fill-opacity="0.5"/>
</svg>
