<svg width="19" height="22" viewBox="0 0 19 22" fill="none" xmlns="http://www.w3.org/2000/svg">
<g clip-path="url(#clip0_9_1332)">
<path opacity="0.4" d="M14.487 5.61475C14.487 6.66295 14.1943 7.68761 13.6457 8.55916C13.0972 9.43071 12.3176 10.11 11.4054 10.5111C10.4933 10.9123 9.48957 11.0172 8.52123 10.8127C7.55289 10.6082 6.66341 10.1035 5.96528 9.36228C5.26714 8.62109 4.79171 7.67675 4.59909 6.64869C4.40648 5.62063 4.50534 4.55501 4.88316 3.5866C5.26099 2.61819 5.90082 1.79047 6.72174 1.20812C7.54266 0.62577 8.50779 0.314941 9.4951 0.314941C10.819 0.314941 12.0888 0.873312 13.0249 1.86722C13.9611 2.86113 14.487 4.20915 14.487 5.61475Z" fill="black" fill-opacity="0.5"/>
<path d="M12.9895 12.2397H12.3382C11.4468 12.6761 10.4768 12.9021 9.49515 12.9021C8.51351 12.9021 7.54354 12.6761 6.65209 12.2397H6.0008C4.61076 12.2401 3.27774 12.8265 2.29483 13.87C1.31192 14.9135 0.759588 16.3288 0.759277 17.8045L0.759277 19.527C0.759277 20.0541 0.956502 20.5596 1.30757 20.9323C1.65863 21.305 2.13477 21.5144 2.63125 21.5144H16.3591C16.8555 21.5144 17.3317 21.305 17.6827 20.9323C18.0338 20.5596 18.231 20.0541 18.231 19.527V17.8045C18.2307 16.3288 17.6784 14.9135 16.6955 13.87C15.7126 12.8265 14.3795 12.2401 12.9895 12.2397Z" fill="black" fill-opacity="0.5"/>
</g>
<defs>
<clipPath id="clip0_9_1332">
<rect width="17.4717" height="21.1992" fill="white" transform="translate(0.759277 0.314941)"/>
</clipPath>
</defs>
</svg>
